<?xml version="1.0" encoding="UTF-8" standalone="no"?>
<!-- Generator: Adobe Illustrator 16.0.0, SVG Export Plug-In . SVG Version: 6.00 Build 0)  -->

<svg
   xmlns:dc="http://purl.org/dc/elements/1.1/"
   xmlns:cc="http://creativecommons.org/ns#"
   xmlns:rdf="http://www.w3.org/1999/02/22-rdf-syntax-ns#"
   xmlns:svg="http://www.w3.org/2000/svg"
   xmlns="http://www.w3.org/2000/svg"
   xmlns:sodipodi="http://sodipodi.sourceforge.net/DTD/sodipodi-0.dtd"
   xmlns:inkscape="http://www.inkscape.org/namespaces/inkscape"
   version="1.1"
   id="Layer_1"
   x="0px"
   y="0px"
   width="315.846px"
   height="216.215px"
   viewBox="0 0 315.846 216.215"
   enable-background="new 0 0 315.846 216.215"
   xml:space="preserve"
   sodipodi:docname="HPLLogo.svg"
   inkscape:version="0.92.0 r15299"><metadata
     id="metadata4506"><rdf:RDF><cc:Work
         rdf:about=""><dc:format>image/svg+xml</dc:format><dc:type
           rdf:resource="http://purl.org/dc/dcmitype/StillImage" /><dc:title></dc:title></cc:Work></rdf:RDF></metadata><defs
     id="defs4504" /><sodipodi:namedview
     pagecolor="#ffffff"
     bordercolor="#666666"
     borderopacity="1"
     objecttolerance="10"
     gridtolerance="10"
     guidetolerance="10"
     inkscape:pageopacity="0"
     inkscape:pageshadow="2"
     inkscape:window-width="1920"
     inkscape:window-height="1005"
     id="namedview4502"
     showgrid="false"
     inkscape:zoom="3.7555212"
     inkscape:cx="157.25732"
     inkscape:cy="108.77318"
     inkscape:window-x="-9"
     inkscape:window-y="-9"
     inkscape:window-maximized="1"
     inkscape:current-layer="Layer_1" /><path
     fill="#5693CE"
     d="M20.61,46.325c-5.853,9.266-10.392,18.805-13.679,28.323c3.907-9.472,9.128-18.868,15.875-27.806  c0.18-0.17,0.33-0.384,0.466-0.587C22.392,46.275,21.483,46.318,20.61,46.325"
     id="path4485"
     style="fill:#ffffff;fill-opacity:1" /><path
     fill="#5693CE"
     d="M113.005,7.831C89.869-9.581,50.839,3.026,25.041,35.903c1.124-0.06,2.496-0.15,3.889-0.267  c23.158-23.171,54.26-30.465,73.833-15.729c22.189,16.711,21.193,55.399-2.242,86.404c-12.064,15.962-27.69,26.736-43.086,31.2  c18.022-4.196,36.992-16.777,51.499-35.956C134.677,67.481,136.512,25.525,113.005,7.831"
     id="path4487"
     style="fill:#ffffff;fill-opacity:1" /><path
     d="M136.769,150.879c-0.043-0.566-0.35-1.385-0.573-1.718c-0.54-0.794-1.31-1.426-2.246-1.672  c-2.212-0.594-4.455,0.878-6.12,2.271c-0.343-0.813-0.689-1.625-0.9-2.485l-1.639-3.466c-0.6-1.472-1.83-2.392-2.122-4.185  c-3.315-4.844-4.852-11.413-9.846-14.592c-1.023-1.26-2.082-2.479-3.358-3.485c-1.342-2.281-4.017-3.142-4.811-5.805  c-0.197-0.599,0-1.425-0.293-2.031c-0.223-0.403-0.789-0.547-1.355-1.029c-0.443-0.384-0.833-0.957-1.223-1.229  c-0.326-0.247-0.729-0.47-1.106-0.697c-8.393,8.918-17.808,15.95-27.379,20.733c0.086,0.134,0.176,0.253,0.243,0.38  c0.863,1.272,2.042,2.385,2.239,3.978c0.076,0.699,0.423,1.334,0.479,2.007c0.1,0.572,0.32,1.018,0.537,1.513  c0.28,0.593,0.213,1.225,0.28,1.886c0.022,0.525,0.252,0.965,0.383,1.451c0.04,0.24-0.073,0.486,0,0.7  c0.04,0.159,0.197,0.2,0.259,0.36c0.163,0.339,0.097,0.926,0.184,1.332c0.143,0.712,0.37,1.453,0.343,2.206  c-0.083,1.525,0.217,3.145,0.347,4.684c0.213,2.325,0.273,4.671,0.213,6.99c-0.064,1.207-0.13,2.405-0.261,3.591  c-0.063,0.608-0.129,1.213-0.206,1.827c-0.067,0.373-0.033,1.506-0.294,1.773c-1.289,1.424-1.745,3.304-2.948,4.683  c-0.906,1.047-2.272,1.872-3.375,2.767c-0.67,0.546-1.326,1.079-1.993,1.625c-0.506,0.439-1.16,0.745-1.529,1.312  c-0.3,0.421-0.437,0.92-0.657,1.373c-0.49,1.073-1.076,2.126-1.623,3.212c-0.383,0.753-0.649,1.513-1.01,2.266  c-0.343,0.646-0.786,1.192-1.182,1.806c-0.483,0.721-0.613,1.561-1.29,2.207c-0.47,0.492-0.953,1.064-1.302,1.485  c-0.914,1.226-1.35,1.705-2.202,2.966c-0.86,1.312-1.667,2.817-2.663,3.897c-0.886,0.939-2.149,1.705-3.159,2.544  c-1.08,0.854-2.075,1.468-3.158,2.586c-0.703,1.386-0.533,2.992-0.846,4.464c-0.144,0.614-0.534,1.088-0.534,1.734  c0,0.732,0.384,1.552,0.534,2.331c0.292,1.486-0.077,3.565,1.179,4.659c1.466,1.272,3.875,1.91,5.717,1.91  c3.065-0.291,5.41-0.525,8.542-0.745c0.82-0.367,0.63-1.98,0.593-2.227c-0.013-0.492-0.3-0.771,0.037-1.245  c4.147-5.116,7.526-10.982,12.677-15.099c0.737,1.02,1.597,1.972,2.442,3.058c0.764,0.973,1.53,2.438,2.463,3.052  c1.12,0.76,2.315,1.347,3.891,1.438c1.699-0.898,0.86-8.034,2.552-10.834c1.246-0.213,2.183-0.8,3.392-1.092  c7.613-7.65,16.168-15.453,24.332-22.855c1.179-1.08,2.416-2.453,3.581-3.18c2.163-1.338,4.748-1.779,6.96-2.951  C131.568,159.076,137.466,152.332,136.769,150.879 M63.002,212.423c-0.767,0.8-2.033,0.779-4.941,0.626  c-2.905-0.134-2.715-0.227-4.375-0.974c-1.383-0.558-1.835-0.358-1.512-3.997c0.319-3.853,3.348-3.145,6.623-2.105  c3.326,1.032,3.339,1.387,3.516,2.078c0.156,0.68,0.82,2.759,0.82,2.759S63.486,211.883,63.002,212.423 M86.897,199.528  c-0.076,0.967,0.13,1.58-0.997,1.42c-1.738-0.279-1.809-1.646-2.525-2.705c-0.819-1.186-1.269-2.052-1.269-2.052  c0.41-1.026,0.663-0.635,1.672-0.848c0.964-0.193,2.026-0.639,2.52-0.639c0.502,0,0.249-0.353,0.572,1.605  C87.156,197.95,87.033,198.476,86.897,199.528 M102.999,157.27c-2.518-0.872-5.587-2.179-9.212-1.405  c-0.013,0.065-0.106,0.106-0.106,0.181c0.23-0.261,2.774,0.032,2.059,0.112c-1.965,0.126-4.208,0.214-5.724,0.713  c2.886-2.806,9.313-2.186,12.671-0.313c0.573,0.279,0.633,0.318,1.106,0.605C104.145,157.89,103.715,157.51,102.999,157.27   M136.146,150.979c-0.443,0.406-0.573,0.659-0.816,1.006c-0.376,0.335-0.376,0.374-0.723,0.714c-0.61,0.674-0.43,0.674-1.25,1.285  c-0.409,0.394-0.586,0.533-1.275,1.12c-0.786,0.719-1.303,0.993-2.279,1.766c-0.917,0.74-1.612,1.414-2.662,2.259  c-0.32,0.24-1.399,0.914-3.315,1.893c-0.813,0.499-1.815,0.993-2.921,0.766c0.936-0.893,1.842-2.079,3.181-3.177  c1.896-1.574,5.055-2.053,4.884-4.799c-0.046-1.394-0.546-2.606-1.049-3.837c0.313-0.214,0.686-0.434,0.946-0.646  c0.58-0.428,1.366-0.821,2.012-1.153c0.936-0.467,1.892-0.54,2.921-0.348c1.01,0.22,1.609,1.181,2.095,2.067  C136.1,150.294,136.283,150.692,136.146,150.979"
     id="path4489"
     style="fill:#ffffff;fill-opacity:1"
     fill="#2A367D" /><path
     fill="#2A367D"
     d="M78.435,25.375c0.566-0.019,1.106,0.027,1.686,0.15c0.067,0.027,0.177,0.027,0.237,0.04  c0.206,0.104,0.233,0.384,0.553,0.384c0.35-0.261,0.943-0.261,1.536-0.207c0.429,0.207,0.585,0.7,0.906,1  c0.247-0.853,1.449-1.072,2.159-0.61c0.482,0.31,0.216,0.82,0.716,1.023c-0.09-0.706,0.319-0.846,0.762-1.009  c0.39,0.07,0.443,0.17,0.627,0.363c0.049,0.026,0.193,0.443,0.193,0.443c0.203,0.676,0.36,1.323,0.593,1.973  c0.163,0.47,0.246,1.009,0.396,1.282h-0.02v0.513c-0.336,0.19-0.767,0.25-1.21,0.313c0.13,0.393,0.423,0.601,0.5,1.037  c-0.82,0.63-1.932-0.35-2.766,0c0.027,0.71,0.663,0.82,0.833,1.419c-0.566,0.977-1.673,0.137-2.565,0.11  c-0.396-0.033-0.75,0.28-1.125,0.184c-0.411-0.077-0.737-0.776-1.01-0.396c-0.097,0.383,1.093,0.586,0.912,1.133  c1.557-0.107,2.596,1.289,4.075,1.412c0.397,0.04,0.839-0.156,1.243-0.086c1.133,0.19,2.202,2.119,2.306,5.081  c0-0.666,0.547-4.61,0.547-5.294c0.696-0.28,1.159-0.813,1.862-1.112c0.073-1.24,0.143-2.489,0.279-3.692  c-1.133-0.19-2.362-0.34-3.501-0.546c-0.3-1.01-0.81-3.698-1.95-4.235c0,0,0.021,0,0.047,0c-0.962-0.54-2.505-0.561-3.521-0.61  c-0.737-0.061-1.466-0.061-2.175-0.034c-0.313,0-0.997,0.163-1.303,0.053c-0.716-0.263-1.146-0.449-1.898-0.339  c-0.253,0.13-0.314,0.2-0.333,0.259c-0.157,0.164-0.356,0.384-0.096,0.457C77.998,25.589,78.215,25.505,78.435,25.375   M67.291,27.771c-0.15-1.066,0.603-1.224,1.216-1.53c0.227,0,0.43,0,0.676-0.026c0.523,0.061,0.803,0.69,1.096,0.939  c0.037-0.502,0.329-0.783,0.572-1.089c0.384-0.02,0.82-0.07,1.21-0.116c0.633,0.097,0.586,0.866,1.087,1.112  c-0.077-1.289,1.759-1.576,2.544-0.82c0-0.366-0.166-0.605-0.193-0.925l-8.882,0.925c-0.527,0-0.97,0-1.16,0.111  C66.567,26.315,66.747,27.258,67.291,27.771 M50.022,73.205c-0.02,0.02-0.02,0.07-0.033,0.11c-0.307,0.909-0.617,1.796-0.924,2.688  c-0.086,0.273-0.15,0.457-0.183,0.593c1.946-0.169,3.861-0.443,5.743-0.887c0.363-0.086,0.716-0.176,1.06-0.306  c0.43-0.177,1.016-0.43,1.369-0.574c-0.014-0.306-0.04-0.599-0.046-0.703c-0.117-0.983-0.267-1.938-0.503-2.895  c-0.117,0.057-0.267,0.083-0.39,0.126c-1.093,0.366-2.169,0.666-3.282,0.919c-0.91,0.233-1.757,0.437-2.596,0.489  C50.152,72.919,50.125,73.078,50.022,73.205 M95.129,106.163c-0.1-0.407-0.183-0.783-0.196-1.247  c-2.389-3.441-4.448-6.996-6.667-10.494c-0.729-1.167-1.446-2.525-2.246-3.585c-0.729-0.946-1.922-1.813-2.844-2.755  c-2.879-2.872-5.915-5.43-8.926-8.059c2.266-4.398,4.341-9.182,6.757-13.36c0.833-1.413,1.896-2.892,2.448-4.305  c0.451-1.066,0.62-2.456,0.93-3.658c0.946-3.771,1.753-7.292,2.763-11.025c0.586-0.469,1.146-0.962,1.119-2.055  c-0.833-0.093-1.243-0.646-1.843-1.002c-1.582,0.743-4.714,0.43-4.987-1.01c-0.384-1.985,2.416-2.148,2.638-3.498  c-0.723,0.033-2.039,0.66-2.365,0.12c0.676-0.491,1.542-0.81,2.156-1.33c-1.243-1.063-3.056-1.582-4.598-2.341  c-0.18-1.616-0.97-2.626-0.909-4.488c0.193-0.533,0.479-0.82,0.623-1.529c0.106-0.267,0.106-0.393-0.077-0.86  c-0.497-0.013-0.906,0.077-1.173-0.073c-0.519-0.526,0.021-1.557-0.396-2.246c-0.24,0.737-0.286,1.632-0.729,2.15  c-0.014-0.553-0.208-0.964-0.397-1.317c0.098,1.513,0.587,2.665,0.91,3.979c-1.14-0.2-1.563,0.32-2.539,0.293  c0,0.313-0.09,0.525-0.33,0.605c-2.312,0.807-5.094,1.093-7.163,2.143c-0.923-0.97-1.167-2.632-2.033-3.655  c0.387,1.526,1.27,2.749,1.739,4.488c3.028-0.833,5.444-2.266,8.706-2.885c0.293-0.33,1.053-0.533,1.619-0.293  c0.094,0.573,0.497,1.233,0.217,1.835c-1.2-0.159-0.463-0.03-1.206,0.217c-0.274-0.137-0.324,0.203-0.774,0.261  C74.84,35.35,74.58,35.35,74.1,35.663c-0.503,0.213-0.417,0.267-0.939,0.337c-0.424,0.203,0.092,0-0.424,0.203  c-0.5,0.077-0.553,0.137-1.016,0.307c-0.733,0.206-0.487,0.137-1.114,0.293c-0.942,0.273-0.375,0.11-1.379,0.376  c-1.452,0.306-0.137-0.026-1.516,0.383c-0.626-0.853-1.253-1.719-2.039-2.439c-0.333,0.287-0.436-0.509-0.489-1.225  c-0.87-0.293-1.133-1.127-1.164-2.247c-0.279-0.059-0.709,0.633-1.206,0.703c-0.806-0.319-1.366-1.385-2.469-1.529  c-0.853-0.107-2.258,0.363-3.365,0.526c-0.866,0.117-1.686,0.15-2.402,0.339c-5.357,0.507-23.889,3.502-27.267,4.029  c3.555-0.304,23.601-2.715,28.036-3.692c1.985-0.156,4.014-0.736,5.827-0.676c0.193,0.24,0.343,0.52,0.287,1.002  c-2.782,0.943-5.678,1.21-8.589,1.637c-1.686,0.252-6.967,1.339-7.976,1.535c-4.285,0.863-9.159,1.75-13.9,2.552  c-1.379,0.234-2.838,0.464-4.195,0.716c-8.216,1.483-16.882,2.116-25.474,1.12c-0.681-0.1-0.94,0.034-1.09,0.187  c0.073-0.376,0.366-0.719,0.652-0.909c1.074-0.476,2.349-0.976,3.599-1.206h0.606c0.253-0.207-0.39-0.111-0.606-0.111  c-1.053-0.04-2.812,0.021-3.585,0c-0.209,0.288-0.593,0.667-0.646,1.127C0.24,39.042,0,40.162,0,40.229v0.103  c0.347,1.68,0.606,3.455,1.549,4.595c2.948,0.033,5.678,0.853,8.482,0.893c2.266,0.06,4.528-0.293,6.741-0.384  c1.815-0.097,3.658-0.052,5.521-0.209c3.261-0.267,6.576-1.093,9.818-1.619c10.039-1.643,19.91-3.465,29.259-5.43  c0.9-0.943,1.576-2.326,3.575-1.619c0.77,1.552,1.35,3.278,1.966,4.99c1.486,0.457,2.611,1.643,4.487,0.919  c-0.847-3.861,2.765-4.204,5.117-5.41c-0.144,0.39,0.077,0.526,0.09,0.819c2.102,0.034,1.829,2.456,2.769,3.671  c-2.033-0.732-4.104,0.074-5.424,0.827c-0.489,0.257-1.536,0.796-1.622,1.232c-0.22,0.78,0.333,2.472,0.497,3.658  c0.179,1.296,0.602,2.715,0.526,3.771c-0.104,1.28-0.88,2.629-1.243,3.679c-0.437,1.373-0.771,2.525-1.12,3.872  c-2.749,2.509-5.095,5.411-8.099,7.662c-0.101-0.426-0.151-0.929-0.264-1.353c-0.316,0.3-0.727,0.58-1.176,0.793  c-0.034,0.026-0.04,0.033-0.08,0.046c-0.09,0.054-0.149,0.087-0.253,0.138c0.104,0.236,0.157,0.476,0.21,0.736  c0.207,0.486,0.396,0.983,0.54,1.499c0.063-0.027,0.123-0.073,0.187-0.12c0.19-0.193,0.413-0.376,0.613-0.573  c0.17-0.253,0.313-0.48,0.553-0.649c0.209,0.586-0.021,0.909-0.39,1.209c-0.247,0.293-0.497,0.54-0.82,0.796  c0.33,1.426,0.457,2.936,0.43,4.341c-3.934,2.892-9.449,3.908-14.232,4.188c-1.433,0.09-2.805-1.102-3.888-1.868  c-0.937-0.646-1.856-1.317-2.779-2.006c0,0-0.027-0.053-0.054-0.053c-1.229-0.879-2.349-1.972-2.599-3.558  c-0.006-0.034-0.006-0.04-0.006-0.061v0.007c-0.057-0.521-0.057-1.07,0.086-1.667c0.09,0.41,0.117,0.89,0.157,1.373  c0.083,0.227,0.213,0.45,0.286,0.743c0.39,1.27,1.489,1.926,2.458,2.656c1.513,1.139,3.002,2.245,4.618,3.221  c0.593,0.341,1.017,0.601,1.699,0.566v-0.016v0.016c0.437-1.249,0.879-2.568,1.316-3.821c-0.28,0-0.547,0.067-0.796,0.067  c-1.83,0.097-3.735,0.893-5.175-0.347c-0.436-0.207-0.756-0.526-0.879-1.003c0.676,0.047,1.029,0.438,1.392,0.77  c0.248,0.077,0.451,0.136,0.62,0.187c0.17,0.046,0.35,0.046,0.494,0.086c1.049,0,2.025-0.08,2.975-0.169  c0.053-0.027,0.093-0.027,0.13-0.027c0.51-0.077,0.989-0.144,1.432-0.213c0.294-0.823,0.58-1.649,0.86-2.475  c0.019-0.11,0.053-0.194,0.08-0.24c-0.646,0.13-1.296,0.273-1.929,0.417c-1.933,0.502-3.821,0.983-5.748,1.432  c-0.417,0.083-0.737,0.083-1.083,0.027h-0.037h-0.033c-0.437-0.136-0.827-0.379-1.16-0.906c-0.034-0.05-0.13-0.267-0.184-0.54  c-0.417-0.67-0.636-1.486-0.363-2.522c-0.073,1.616,1.023,3.171,2.116,3.431c0.436,0,0.943-0.193,1.315-0.267  c0.274-0.049,0.566-0.137,0.813-0.22h0.033h0.034c1.979-0.483,3.917-0.989,5.884-1.519c2.681-0.753,5.377-1.554,8.015-2.52  c0.28-0.096,0.56-0.233,0.867-0.356c0.226-0.066,0.316-0.111,0.396-0.137c0.409-0.169,0.82-0.346,1.209-0.56  c0,0,0.033-0.013,0.046-0.034c0.286-0.137,0.54-0.279,0.783-0.396c0.207-0.137,0.396-0.25,0.59-0.367  c0.066-0.077,0.136-0.144,0.196-0.157c0.04-0.656,0-0.506-0.19-1.026c-0.382,0.09-0.93,0.417-1.282,0.507  c-1.152,0.24-0.86,0.219-1.815,0.339c-0.274-1.029-0.86-1.726-1.12-2.729c1.393-0.839,3.229-1.25,3.282-3.391  c-1.83-0.601-2.792-1.376-4.481-2.11c-0.287-0.386-1.034-1.609-1.443-2.392c-0.687-1.112-0.49-0.609-1.459-1.822  c-0.729-0.943-1.699-1.882-2.469-2.292c-0.729-0.343-1.883-0.729-2.852-0.976c-0.95-0.247-1.899-0.71-2.853-0.71  c-0.649-0.029-1.523,0.244-2.245,0.411c-2.129,0.436-2.758,0.723-4.094,1.739c-0.593,0.45-1.38,0.962-1.753,1.433  c-0.144,0.212-0.573,0.689-0.716,0.906c-0.287,0.513-0.547,0.703-0.806,1.176c-0.43,0.802-0.43,0.913-0.703,1.473  c-0.697,1.426-1.349,2.892-1.622,4.634c0.026,4.988,2.897,6.95,3.848,10.979c0.067-0.54-0.293-1.183,0-1.622  c0.34,0.502,0.203,1.486,0.333,2.242c0.757,0.883,2.076,1.189,2.45,2.435c-0.954-0.163-1.753-1.622-2.503-1.692  c1.22,1.045,2.313,2.165,3.636,2.831c0.176,0.084,0.457,0,0.695,0.117c1.12,0.493,1.959,1.822,2.956,2.143  c0.477,0.129,0.6-0.08,0.943,0.409c-2.328,0.397-2.999-2.696-4.375-2.045c-1.045,0.469-1.275,0.319-2.499,0.489  c-0.176,0.957,1.029,2.368,1.223,3.275c0.783,1.152,0.027,1.725,0.709,2.969c0.73,0.632,1.153,0.813,1.766,1.206  c0.35,2.413,0.137,4.984,0.909,7.363c0.9,1.763,2.976,2.922,4.421,4.472c1.556,1.706,3.685,3.528,4.898,4.707  c4.204,4.088,8.262,7.507,12.583,11.415c1.096,1.002,3.725,2.882,4.311,4.094c0.47,1.066,0.651,2.486,0.977,3.781  c0.383,1.271,0.943,2.644,1.05,3.776c0.226,2.025-0.517,3.944,0,6.122c0.076,0.34,0.286,0.714,0.586,1.12  c8.359-5.397,16.281-12.404,23.098-20.874c0.504-0.632,0.977-1.262,1.453-1.895C96.698,106.735,96.04,106.292,95.129,106.163   M60.51,66.328c-0.116-0.053-0.226-0.067-0.39-0.02c-0.014,0.02-0.054,0.027-0.089,0.04c-0.047,0.046-0.074,0.046-0.074,0.046  c-0.826,0.31-1.625,0.566-2.292,0.813c-0.397,0.137-0.807,0.252-1.204,0.37c-0.073,0.033-0.15,0.059-0.196,0.096  c0,0.217,0.04,0.433,0.046,0.633c0.194,0.71,0.397,1.399,0.58,2.095c1.197-0.409,2.37-0.859,3.569-1.398  c0.279-0.138,0.533-0.301,0.819-0.457c-0.086-0.32-0.176-0.657-0.286-0.983C60.843,67.148,60.7,66.725,60.51,66.328 M56.389,70.606  c-0.187-0.845-0.39-1.925-0.82-2.659c-0.006-0.036-0.006-0.056-0.006-0.056c-0.86,0.273-1.673,0.533-2.506,0.79  c-0.523,0.166-1.083,0.363-1.656,0.526c-0.309,0.853-0.616,1.706-0.896,2.598c-0.027,0.12-0.04,0.181-0.054,0.273  c0.436-0.053,0.914-0.119,1.4-0.223c1.309-0.286,2.592-0.623,3.834-1.023C55.916,70.763,56.116,70.659,56.389,70.606 M57.099,71.172  c0.236,1.113,0.449,2.252,0.579,3.385c1.193-0.307,2.34-0.906,3.385-1.353c0,0,0.04-0.034,0.074-0.04  c0.279-0.203,0.5-0.333,0.656-0.409c0-1.16-0.096-2.319-0.343-3.438c-0.08,0-0.176,0.013-0.273,0.056  c-1.296,0.756-2.845,1.286-4.091,1.683C57.086,71.1,57.099,71.14,57.099,71.172"
     id="path4491"
     style="fill:#ffffff;fill-opacity:1" /><path
     style="fill:#ffffff;stroke-width:0.73576337;fill-opacity:1"
     d="m 138.50873,145.96101 c 0.78048,5.6678 1.27612,11.30077 1.4842,16.89897 0.21341,5.59465 0.32303,11.26368 0.32303,16.99469 0,5.65147 -0.094,11.30255 -0.27689,16.94336 -0.1753,5.6465 -0.66986,11.2389 -1.52885,16.84349 h 22.91192 c -0.76525,-5.66141 -1.25081,-11.29719 -1.45888,-16.90036 -0.17035,-4.35678 -0.26774,-8.74244 -0.30369,-13.13825 1.81533,-0.24723 3.62473,-0.41357 5.42318,-0.49107 1.91642,-0.0864 3.84867,-0.13226 5.78491,-0.14288 1.96376,-0.0108 3.90496,0.0199 5.82214,0.0985 1.83728,0.066 3.68691,0.21426 5.54674,0.43004 -0.0302,4.50352 -0.10282,9.00612 -0.2486,13.50169 -0.1753,5.64649 -0.66986,11.23889 -1.52885,16.84348 h 22.91043 c -0.76524,-5.66141 -1.24932,-11.29719 -1.4574,-16.90036 -0.21875,-5.59464 -0.32155,-11.23502 -0.32155,-16.88648 0,-5.73173 0.11828,-11.40005 0.37514,-16.99469 0.22866,-5.5982 0.70488,-11.23117 1.40381,-16.89898 H 180.4576 c 0.78048,5.66781 1.27611,11.30078 1.48419,16.89898 0.15795,4.14043 0.2573,8.32203 0.29923,12.53897 -1.87177,0.26482 -3.73207,0.4404 -5.58247,0.52021 -1.91644,0.0846 -3.85862,0.13349 -5.82214,0.14426 -1.93624,0.0106 -3.87287,-0.0109 -5.80577,-0.0637 -1.79877,-0.0467 -3.58211,-0.19451 -5.36809,-0.44529 0.0439,-4.33794 0.15884,-8.6384 0.3543,-12.89549 0.22866,-5.5982 0.70636,-11.23117 1.40529,-16.89897 z"
     id="path4493"
     inkscape:connector-curvature="0" /><path
     d="m 267.55812,154.51157 c -1.44177,-2.20311 -3.39906,-3.94757 -5.87005,-5.20977 -2.49495,-1.28365 -5.37941,-2.1752 -8.69062,-2.65246 -3.3059,-0.50946 -6.78659,-0.75345 -10.45183,-0.75345 h -35.71453 c 0.89169,5.71207 1.47816,11.38621 1.73103,17.03102 0.22624,5.6405 0.37886,11.34685 0.37886,17.11688 0,5.69776 -0.15262,11.37548 -0.37886,17.02028 -0.25287,5.64051 -0.83934,11.31466 -1.73103,17.02673 h 26.65747 c -0.72134,-4.39621 -1.2599,-8.79099 -1.58374,-13.1965 -0.33716,-4.37689 -0.52171,-8.80673 -0.52171,-13.26447 v -4.9393 c 1.45598,0.35777 5.86474,0.93377 6.75198,1.00102 0.99196,0.0658 1.96261,0.0851 2.92616,0.0851 4.09111,0 7.86193,-0.43718 11.32221,-1.32015 3.46294,-0.88224 6.49113,-2.19237 9.04464,-3.94327 2.57746,-1.74017 4.59419,-3.91967 6.04308,-6.55068 1.48968,-2.5945 2.22168,-5.62047 2.22168,-9.03569 -9e-4,-3.4145 -0.70892,-6.22153 -2.13474,-8.41534 m -22.57699,15.00035 c -0.3203,1.77379 -0.95824,3.35654 -1.88718,4.72965 -0.9396,1.37309 -2.25717,2.50793 -3.9678,3.38875 -1.67867,0.86363 -5.06532,1.44536 -7.74482,1.3917 v -25.05066 c 0.35047,-0.0616 0.93517,-0.0995 1.75055,-0.0995 4.55249,0 7.75103,0.72984 9.57788,2.1981 1.83129,1.47257 2.75492,4.16725 2.75492,8.02967 8.8e-4,1.84535 -0.15438,3.62917 -0.48355,5.41226"
     id="path4495"
     inkscape:connector-curvature="0"
     style="fill:#ffffff;stroke-width:0.79677731;fill-opacity:1" /><path
     d="m 312.65648,215.1499 c -4.87965,-0.32211 -9.80732,-0.37543 -14.68626,-0.42732 -4.85529,-0.0685 -6.08201,-0.10592 -10.90004,-0.10592 0,0 -14.84963,0.46983 -16.02834,0.53324 0.72514,-5.7482 1.17943,-11.46685 1.38938,-17.14731 0.17627,-5.67613 0.29091,-11.39838 0.29091,-17.13217 0,-5.80945 -0.11464,-11.56629 -0.29091,-17.24675 -0.21067,-5.68046 -0.66496,-11.39478 -1.38938,-17.1473 h 21.52852 c -0.68215,5.75252 -1.11351,11.46684 -1.32202,17.1473 -0.2293,5.68046 -0.35469,11.4373 -0.35469,17.24675 0,1.92111 0.0151,3.82276 0.0487,5.73379 0.0279,1.92038 0.0574,3.84149 0.0574,5.76765 0,2.16467 0.0186,4.38771 0.0803,6.62444 0.0766,2.24825 0.26155,4.45616 0.61193,6.64173 8.23451,2.03496 18.54341,-0.91804 21.75567,-1.38426 z"
     id="path4497"
     inkscape:connector-curvature="0"
     style="fill:#ffffff;stroke-width:0.71856654;fill-opacity:1" /><path
     fill="#5693CE"
     d="M20.833,46.492c-5.854,9.265-10.392,18.804-13.68,28.322c3.905-9.475,9.128-18.864,15.879-27.803  c0.169-0.18,0.326-0.39,0.462-0.586C22.616,46.445,21.71,46.479,20.833,46.492"
     id="path4499"
     style="fill:#ffffff;fill-opacity:1" /><text
     xml:space="preserve"
     style="font-style:normal;font-weight:normal;font-size:40px;line-height:25px;font-family:sans-serif;letter-spacing:0px;word-spacing:0px;fill:#ffffff;fill-opacity:1;stroke:none;"
     x="254.02599"
     y="61.243164"
     id="text4541"><tspan
       sodipodi:role="line"
       id="tspan4539"
       x="254.02599"
       y="85.236374"
       style="font-style:normal;font-variant:normal;font-weight:normal;font-stretch:normal;font-family:'Goudy Stout';-inkscape-font-specification:'Goudy Stout';fill:#ffffff;fill-opacity:1;" /></text>
<text
     xml:space="preserve"
     style="font-style:normal;font-weight:normal;font-size:40px;line-height:25px;font-family:sans-serif;letter-spacing:0px;word-spacing:0px;fill:#ffffff;fill-opacity:1;stroke:none;"
     x="226.33344"
     y="64.704735"
     id="text4602"><tspan
       sodipodi:role="line"
       id="tspan4600"
       x="226.33344"
       y="88.697945"
       style="font-style:normal;font-variant:normal;font-weight:normal;font-stretch:normal;font-family:sans-serif;-inkscape-font-specification:sans-serif;fill:#ffffff;fill-opacity:1;" /></text>
</svg>